<!--?xml version="1.0" standalone="no"?-->
              <svg id="sw-js-blob-svg" viewBox="0 0 100 100" xmlns="http://www.w3.org/2000/svg" version="1.1">
                    <defs> 
                        <linearGradient id="sw-gradient" x1="0" x2="1" y1="1" y2="0">
                            <stop id="stop1" stop-color="rgba(65, 90, 119, 1)" offset="0%"></stop>
                            <stop id="stop2" stop-color="rgba(224, 225, 221, 1)" offset="100%"></stop>
                        </linearGradient>
                    </defs>
                <path fill="none" d="M16.5,-25.6C21.3,-22.5,25.1,-17.9,29.2,-12.4C33.2,-6.8,37.4,-0.4,37,5.6C36.6,11.7,31.6,17.4,26.3,21.9C21,26.5,15.4,29.9,9.3,31.6C3.3,33.3,-3.2,33.2,-10.1,32.2C-17,31.2,-24.2,29.2,-30.1,24.8C-35.9,20.3,-40.4,13.4,-40.1,6.6C-39.8,-0.2,-34.7,-6.9,-31.4,-14.4C-28.1,-22,-26.5,-30.4,-21.6,-33.4C-16.7,-36.5,-8.3,-34,-1.3,-32.1C5.8,-30.1,11.6,-28.6,16.5,-25.6Z" width="100%" height="100%" transform="translate(50 50)" stroke-width="1" style="transition: all 0.3s ease 0s;" stroke="url(#sw-gradient)"></path>
              </svg>